<svg xmlns="http://www.w3.org/2000/svg" xmlns:xlink="http://www.w3.org/1999/xlink" version="1.1" width="256" height="256" viewBox="0 0 256 256" xml:space="preserve">
<g style="stroke: none; stroke-width: 0; stroke-dasharray: none; stroke-linecap: butt; stroke-linejoin: miter; stroke-miterlimit: 10; fill: none; fill-rule: nonzero; opacity: 1;" transform="translate(1.4065934065934016 -3.4372388175204946) scale(2.81 2.81)">
	<path d="M 83.546 45.008 H 78.73 v -4.934 c 0 -4.515 -3.66 -8.175 -8.175 -8.175 H 48.898 L 47.69 21.456 h -0.049 c 1.673 -0.933 2.818 -2.699 2.818 -4.751 c 0 -3.015 -2.444 -5.46 -5.46 -5.46 s -5.46 2.444 -5.46 5.46 c 0 2.05 1.143 3.814 2.813 4.748 H 42.31 l -1.209 10.445 H 19.445 c -4.515 0 -8.175 3.66 -8.175 8.175 v 4.934 H 6.454 C 2.89 45.008 0 47.898 0 51.462 v 9.244 c 0 3.565 2.89 6.454 6.454 6.454 h 4.816 v 3.418 c 0 4.515 3.66 8.175 8.175 8.175 h 51.109 c 4.515 0 8.175 -3.66 8.175 -8.175 v -3.418 h 4.816 c 3.565 0 6.454 -2.89 6.454 -6.454 v -9.244 C 90 47.898 87.11 45.008 83.546 45.008 z M 29.02 50.09 c 0 -2.259 1.832 -4.091 4.091 -4.091 c 2.259 0 4.091 1.832 4.091 4.091 c 0 2.259 -1.832 4.091 -4.091 4.091 C 30.851 54.181 29.02 52.349 29.02 50.09 z M 56.889 70.478 H 33.111 c -1.13 0 -2.045 -0.916 -2.045 -2.045 s 0.916 -2.045 2.045 -2.045 h 23.778 c 1.13 0 2.045 0.916 2.045 2.045 S 58.019 70.478 56.889 70.478 z M 56.889 54.181 c -2.259 0 -4.091 -1.832 -4.091 -4.091 c 0 -2.259 1.832 -4.091 4.091 -4.091 c 2.259 0 4.091 1.832 4.091 4.091 C 60.98 52.349 59.149 54.181 56.889 54.181 z" style="stroke: none; stroke-width: 1; stroke-dasharray: none; stroke-linecap: butt; stroke-linejoin: miter; stroke-miterlimit: 10; fill: rgb(255,255,255); fill-rule: nonzero; opacity: 1;" transform=" matrix(1 0 0 1 0 0) " stroke-linecap="round"/>
</g>
</svg>